<svg version="1" xmlns="http://www.w3.org/2000/svg" width="293.333" height="293.333" viewBox="0 0 220.000000 220.000000"><path d="M45.1 61.8c-1 1.9-29 78.2-29.9 81.4-.4 1.5.2 1.8 3.7 1.8 3.9 0 4 .1 3.1 2.6-.6 1.4-1 2.7-1 3 0 .2 5.4.4 11.9.4h12l2.2-7 2.3-7H75.7l1.2 4c.9 3.2 1.6 4 3.6 4 1.8 0 2.5.7 3 3l.7 3H108.9l-2.8-7.8c-1.6-4.2-8.5-23.1-15.2-41.9C81.1 74.2 78.1 67 76.8 67c-1.1 0-2.4-1.4-3.2-3.5L72.1 60h-13c-11.6 0-13.1.2-14 1.8zm20.3 44l2.5 7.2h-5c-2.7 0-4.9-.3-4.9-.7 0-1.2 4.4-14.3 4.7-13.9.2.1 1.4 3.5 2.7 7.4zM111 102.5V145h3c2.7 0 3 .3 3 3v3h22.9l.3-15.2.3-15.2 6.5 12.2c4 7.4 7.1 12.2 8 12.2.9 0 2.4 1.3 3.3 3l1.8 3h12.5c6.8 0 12.4-.2 12.4-.4 0-.3-4-7.5-9-16-4.9-8.6-9-15.8-9-16.1 0-.3 2.3-1.6 5-3 8.9-4.5 13.7-13.8 12.7-24.6-.6-7.1-3.2-12-10.1-19.1C164.7 61.5 159 60 129.8 60H111v42.5zm44.4-14.9c1 2.5-2.1 8.3-4.9 9.4-1.5.6-4.4 1-6.6 1H140V86h7.4c5.8 0 7.5.3 8 1.6z"/></svg>